<?xml version="1.0" standalone="no"?>
<!DOCTYPE svg PUBLIC "-//W3C//DTD SVG 20010904//EN"
 "http://www.w3.org/TR/2001/REC-SVG-20010904/DTD/svg10.dtd">
<svg version="1.0" xmlns="http://www.w3.org/2000/svg"
 width="250.000000pt" height="250.000000pt" viewBox="0 0 250.000000 250.000000"
 preserveAspectRatio="xMidYMid meet">

<g transform="translate(0.000000,250.000000) scale(0.100000,-0.100000)"
fill="#000000" stroke="none">
<path d="M1204 2236 c-33 -22 -107 -39 -182 -43 -61 -3 -78 -8 -114 -33 -22
-17 -47 -30 -55 -30 -7 0 -13 -4 -13 -9 0 -5 -9 -13 -20 -16 -11 -3 -20 -13
-20 -21 0 -8 -7 -14 -16 -14 -20 0 -43 -28 -44 -51 0 -9 -9 -19 -21 -22 -11
-3 -23 -15 -26 -26 -3 -12 -9 -21 -14 -21 -18 0 -79 -75 -79 -96 0 -14 -8 -24
-21 -27 -15 -4 -20 -12 -17 -30 1 -14 -4 -33 -13 -44 -24 -27 -32 -149 -12
-187 10 -20 13 -45 10 -75 -4 -38 -1 -52 18 -77 22 -28 23 -35 13 -68 -11 -36
-10 -39 20 -67 24 -22 32 -39 32 -63 0 -19 7 -39 15 -46 9 -7 15 -29 15 -55 0
-27 6 -47 16 -56 9 -7 29 -39 45 -71 35 -69 55 -95 89 -113 15 -8 33 -33 44
-62 30 -75 77 -143 138 -198 59 -55 78 -95 53 -115 -8 -7 -24 -32 -35 -56 -22
-52 -34 -57 -179 -85 -117 -23 -181 -51 -227 -101 -35 -36 -68 -123 -79 -205
l-7 -53 732 0 731 0 -6 48 c-11 76 -52 182 -82 214 -41 44 -107 74 -203 92
-155 31 -177 41 -205 96 -14 27 -29 51 -34 55 -19 11 9 59 74 126 45 46 77 92
105 149 23 48 49 88 61 94 27 14 109 143 109 172 0 11 9 29 21 40 16 15 20 27
16 56 -4 30 1 47 29 90 21 33 34 66 34 87 0 19 8 44 18 55 28 33 51 91 42 106
-5 8 -5 21 -1 29 10 20 6 140 -7 211 -16 82 -48 163 -71 179 -12 7 -21 24 -21
36 0 16 -8 25 -25 29 -14 4 -30 17 -35 29 -16 37 -36 57 -58 57 -12 0 -29 11
-38 25 -9 14 -21 25 -28 25 -6 0 -22 12 -35 25 -12 14 -26 23 -31 20 -4 -2
-16 2 -26 10 -10 8 -28 15 -39 15 -12 0 -27 6 -33 12 -7 7 -28 11 -47 10 -26
-3 -36 1 -45 17 -9 18 -17 20 -48 15 -28 -4 -41 -2 -51 10 -10 12 -17 13 -31
4 -14 -9 -25 -9 -43 -1 -19 9 -29 8 -43 -1z m367 -645 c44 -13 62 -33 89 -94
29 -66 39 -206 16 -229 -9 -9 -16 -21 -16 -26 0 -5 -8 -16 -18 -26 -16 -13
-24 -14 -51 -5 -41 14 -138 6 -177 -14 -17 -9 -36 -28 -43 -44 -12 -26 -11
-26 18 7 27 31 30 33 31 13 0 -12 3 -28 6 -36 4 -12 -3 -17 -28 -20 -18 -2 1
-4 42 -4 63 -1 161 12 123 16 -8 0 -13 15 -13 32 0 29 2 31 27 24 38 -9 39
-12 17 -37 -15 -18 -16 -20 -1 -9 9 7 17 10 17 5 1 -5 10 2 21 15 28 35 41 13
37 -64 -3 -51 -12 -74 -56 -151 -29 -50 -54 -101 -57 -114 -2 -12 -12 -34 -21
-49 l-18 -26 -12 32 c-9 21 -24 34 -46 42 -119 37 -215 17 -159 -33 15 -14 75
-26 145 -29 16 -1 34 -10 40 -19 9 -14 3 -25 -32 -61 -23 -23 -42 -51 -42 -60
0 -10 -11 -29 -25 -43 -14 -14 -25 -29 -25 -35 0 -5 -10 -1 -22 11 -29 26 -48
25 -48 -2 -1 -23 -1 -23 -15 2 -8 14 -14 19 -15 11 0 -11 -3 -10 -13 3 -13 17
-14 17 -30 1 -9 -9 -17 -22 -18 -28 0 -7 -4 -2 -9 11 -8 18 -15 21 -34 16 -22
-5 -28 -1 -42 30 -10 20 -15 38 -12 41 3 3 24 -2 48 -10 62 -22 157 -20 198 5
37 23 51 48 33 60 -10 5 -9 9 3 13 8 3 20 16 26 28 l12 21 -98 -3 c-129 -4
-219 -1 -211 8 4 3 22 8 39 10 33 3 73 38 62 54 -3 5 -10 7 -15 4 -5 -4 -9 -1
-9 4 0 26 -151 0 -181 -30 -19 -19 -20 -19 -39 13 -11 18 -20 36 -20 39 0 3
-22 46 -50 95 -49 88 -56 113 -44 172 l6 30 45 -19 c26 -11 79 -21 122 -24 44
-3 65 -1 51 3 -17 5 -21 10 -12 16 6 4 12 19 12 33 0 26 0 26 23 7 l22 -19
-19 22 c-24 29 -74 43 -149 43 -57 0 -58 1 -73 35 -22 53 -18 61 32 75 40 11
60 11 140 -4 97 -19 114 -17 114 13 0 23 -29 37 -128 60 -89 21 -111 20 -148
-4 -13 -8 -26 -15 -29 -15 -9 0 -5 90 6 136 10 40 17 47 53 62 22 9 45 15 50
14 13 -4 117 -2 201 3 39 3 77 4 85 4 45 -3 149 2 175 9 30 8 68 4 136 -17z
m-559 -403 c-9 -9 -15 -9 -24 0 -9 9 -7 12 12 12 19 0 21 -3 12 -12z m470 0
c-9 -9 -15 -9 -24 0 -9 9 -7 12 12 12 19 0 21 -3 12 -12z m-530 -28 c5 -35 6
-35 -32 -15 -34 18 -38 31 -12 38 34 9 40 6 44 -23z m129 -397 c8 2 10 2 6 -1
-4 -2 -2 -14 6 -26 12 -17 12 -25 3 -38 -11 -16 -16 -14 -50 14 -35 29 -36 31
-20 49 12 13 21 16 29 9 7 -6 19 -9 26 -7z m149 -58 c23 -9 28 -14 15 -14 -30
-1 -65 10 -65 20 0 11 7 11 50 -6z m90 1 c0 -2 -9 -6 -20 -9 -11 -3 -20 -1
-20 4 0 5 9 9 20 9 11 0 20 -2 20 -4z"/>
<path d="M1470 1403 c-74 -12 -129 -34 -135 -54 -12 -38 8 -44 87 -26 94 22
126 22 190 -3 84 -32 88 -25 27 44 -39 44 -43 46 -92 45 -29 -1 -63 -4 -77 -6z"/>
<path d="M1160 1141 c0 -35 26 -62 36 -37 9 24 -4 66 -21 66 -10 0 -15 -10
-15 -29z"/>
<path d="M1126 1139 c3 -6 0 -15 -7 -20 -10 -6 -8 -9 9 -9 20 0 21 3 12 20 -6
11 -13 20 -16 20 -3 0 -2 -5 2 -11z"/>
<path d="M1147 955 c-15 -14 -27 -36 -27 -49 0 -20 11 -28 64 -49 l64 -26 66
26 c53 21 66 31 66 48 0 12 -3 24 -6 27 -5 6 -55 -8 -86 -23 -26 -13 -43 -11
-83 9 -28 14 -34 21 -30 40 7 28 6 28 -28 -3z"/>
</g>
</svg>
